<svg width="213" height="36" viewBox="0 0 213 36" fill="none" xmlns="http://www.w3.org/2000/svg">
<path d="M209.319 3.95703C210.233 3.95703 210.961 4.2557 211.503 4.85303C212.053 5.44103 212.329 6.25303 212.329 7.28903V11.853H209.949V7.61103C209.949 7.08836 209.813 6.68236 209.543 6.39303C209.272 6.1037 208.908 5.95903 208.451 5.95903C207.993 5.95903 207.629 6.1037 207.359 6.39303C207.088 6.68236 206.953 7.08836 206.953 7.61103V11.853H204.559V4.04103H206.953V5.07703C207.195 4.7317 207.522 4.46103 207.933 4.26503C208.343 4.0597 208.805 3.95703 209.319 3.95703Z" fill="#CD3744"/>
<path d="M199.2 11.965C198.435 11.965 197.744 11.8016 197.128 11.475C196.521 11.1483 196.041 10.6816 195.686 10.075C195.341 9.46829 195.168 8.75896 195.168 7.94696C195.168 7.14429 195.345 6.43962 195.7 5.83296C196.055 5.21696 196.54 4.74562 197.156 4.41896C197.772 4.09229 198.463 3.92896 199.228 3.92896C199.993 3.92896 200.684 4.09229 201.3 4.41896C201.916 4.74562 202.401 5.21696 202.756 5.83296C203.111 6.43962 203.288 7.14429 203.288 7.94696C203.288 8.74962 203.106 9.45896 202.742 10.075C202.387 10.6816 201.897 11.1483 201.272 11.475C200.656 11.8016 199.965 11.965 199.2 11.965ZM199.2 9.89296C199.657 9.89296 200.045 9.72496 200.362 9.38896C200.689 9.05296 200.852 8.57229 200.852 7.94696C200.852 7.32162 200.693 6.84096 200.376 6.50496C200.068 6.16896 199.685 6.00096 199.228 6.00096C198.761 6.00096 198.374 6.16896 198.066 6.50496C197.758 6.83162 197.604 7.31229 197.604 7.94696C197.604 8.57229 197.753 9.05296 198.052 9.38896C198.36 9.72496 198.743 9.89296 199.2 9.89296Z" fill="#CD3744"/>
<path d="M192.719 3.22892C192.299 3.22892 191.954 3.10758 191.683 2.86492C191.422 2.61292 191.291 2.30492 191.291 1.94092C191.291 1.56758 191.422 1.25958 191.683 1.01692C191.954 0.764916 192.299 0.638916 192.719 0.638916C193.13 0.638916 193.466 0.764916 193.727 1.01692C193.998 1.25958 194.133 1.56758 194.133 1.94092C194.133 2.30492 193.998 2.61292 193.727 2.86492C193.466 3.10758 193.13 3.22892 192.719 3.22892ZM193.909 4.04092V11.8529H191.515V4.04092H193.909Z" fill="#CD3744"/>
<path d="M190.182 9.82296V11.853H188.964C188.096 11.853 187.419 11.643 186.934 11.223C186.449 10.7936 186.206 10.0983 186.206 9.13696V6.02896H185.254V4.04096H186.206V2.13696H188.6V4.04096H190.168V6.02896H188.6V9.16496C188.6 9.3983 188.656 9.5663 188.768 9.66896C188.88 9.77163 189.067 9.82296 189.328 9.82296H190.182Z" fill="#CD3744"/>
<path d="M175.85 7.93296C175.85 7.13029 175.999 6.42562 176.298 5.81896C176.606 5.21229 177.021 4.74562 177.544 4.41896C178.066 4.09229 178.65 3.92896 179.294 3.92896C179.844 3.92896 180.325 4.04096 180.736 4.26496C181.156 4.48896 181.478 4.78296 181.702 5.14696V4.04096H184.096V11.853H181.702V10.747C181.468 11.111 181.142 11.405 180.722 11.629C180.311 11.853 179.83 11.965 179.28 11.965C178.645 11.965 178.066 11.8016 177.544 11.475C177.021 11.139 176.606 10.6676 176.298 10.061C175.999 9.44496 175.85 8.73562 175.85 7.93296ZM181.702 7.94696C181.702 7.34962 181.534 6.87829 181.198 6.53296C180.871 6.18762 180.47 6.01496 179.994 6.01496C179.518 6.01496 179.112 6.18762 178.776 6.53296C178.449 6.86896 178.286 7.33562 178.286 7.93296C178.286 8.53029 178.449 9.00629 178.776 9.36096C179.112 9.70629 179.518 9.87896 179.994 9.87896C180.47 9.87896 180.871 9.70629 181.198 9.36096C181.534 9.01562 181.702 8.54429 181.702 7.94696Z" fill="#CD3744"/>
<path d="M173.401 3.22892C172.981 3.22892 172.635 3.10758 172.365 2.86492C172.103 2.61292 171.973 2.30492 171.973 1.94092C171.973 1.56758 172.103 1.25958 172.365 1.01692C172.635 0.764916 172.981 0.638916 173.401 0.638916C173.811 0.638916 174.147 0.764916 174.409 1.01692C174.679 1.25958 174.815 1.56758 174.815 1.94092C174.815 2.30492 174.679 2.61292 174.409 2.86492C174.147 3.10758 173.811 3.22892 173.401 3.22892ZM174.591 4.04092V11.8529H172.197V4.04092H174.591Z" fill="#CD3744"/>
<path d="M163.244 7.94696C163.244 7.13496 163.407 6.42562 163.734 5.81896C164.07 5.21229 164.532 4.74562 165.12 4.41896C165.717 4.09229 166.399 3.92896 167.164 3.92896C168.144 3.92896 168.961 4.18562 169.614 4.69896C170.277 5.21229 170.711 5.93562 170.916 6.86896H168.368C168.153 6.27162 167.738 5.97296 167.122 5.97296C166.683 5.97296 166.333 6.14562 166.072 6.49096C165.811 6.82696 165.68 7.31229 165.68 7.94696C165.68 8.58162 165.811 9.07162 166.072 9.41696C166.333 9.75296 166.683 9.92096 167.122 9.92096C167.738 9.92096 168.153 9.62229 168.368 9.02496H170.916C170.711 9.93962 170.277 10.6583 169.614 11.181C168.951 11.7036 168.135 11.965 167.164 11.965C166.399 11.965 165.717 11.8016 165.12 11.475C164.532 11.1483 164.07 10.6816 163.734 10.075C163.407 9.46829 163.244 8.75896 163.244 7.94696Z" fill="#CD3744"/>
<path d="M158.362 11.965C157.597 11.965 156.906 11.8016 156.29 11.475C155.683 11.1483 155.203 10.6816 154.848 10.075C154.503 9.46829 154.33 8.75896 154.33 7.94696C154.33 7.14429 154.507 6.43962 154.862 5.83296C155.217 5.21696 155.702 4.74562 156.318 4.41896C156.934 4.09229 157.625 3.92896 158.39 3.92896C159.155 3.92896 159.846 4.09229 160.462 4.41896C161.078 4.74562 161.563 5.21696 161.918 5.83296C162.273 6.43962 162.45 7.14429 162.45 7.94696C162.45 8.74962 162.268 9.45896 161.904 10.075C161.549 10.6816 161.059 11.1483 160.434 11.475C159.818 11.8016 159.127 11.965 158.362 11.965ZM158.362 9.89296C158.819 9.89296 159.207 9.72496 159.524 9.38896C159.851 9.05296 160.014 8.57229 160.014 7.94696C160.014 7.32162 159.855 6.84096 159.538 6.50496C159.23 6.16896 158.847 6.00096 158.39 6.00096C157.923 6.00096 157.536 6.16896 157.228 6.50496C156.92 6.83162 156.766 7.31229 156.766 7.94696C156.766 8.57229 156.915 9.05296 157.214 9.38896C157.522 9.72496 157.905 9.89296 158.362 9.89296Z" fill="#CD3744"/>
<path d="M150.178 11.965C149.497 11.965 148.89 11.8483 148.358 11.615C147.826 11.3816 147.406 11.0643 147.098 10.663C146.79 10.2523 146.617 9.79496 146.58 9.29096H148.946C148.974 9.56162 149.1 9.78096 149.324 9.94896C149.548 10.117 149.823 10.201 150.15 10.201C150.449 10.201 150.677 10.145 150.836 10.033C151.004 9.91162 151.088 9.75762 151.088 9.57096C151.088 9.34696 150.971 9.18362 150.738 9.08096C150.505 8.96896 150.127 8.84762 149.604 8.71696C149.044 8.58629 148.577 8.45096 148.204 8.31096C147.831 8.16162 147.509 7.93296 147.238 7.62496C146.967 7.30762 146.832 6.88296 146.832 6.35096C146.832 5.90296 146.953 5.49696 147.196 5.13296C147.448 4.75962 147.812 4.46562 148.288 4.25096C148.773 4.03629 149.347 3.92896 150.01 3.92896C150.99 3.92896 151.76 4.17162 152.32 4.65696C152.889 5.14229 153.216 5.78629 153.3 6.58896H151.088C151.051 6.31829 150.929 6.10362 150.724 5.94496C150.528 5.78629 150.267 5.70696 149.94 5.70696C149.66 5.70696 149.445 5.76296 149.296 5.87496C149.147 5.97762 149.072 6.12229 149.072 6.30896C149.072 6.53296 149.189 6.70096 149.422 6.81296C149.665 6.92496 150.038 7.03696 150.542 7.14896C151.121 7.29829 151.592 7.44762 151.956 7.59696C152.32 7.73696 152.637 7.97029 152.908 8.29696C153.188 8.61429 153.333 9.04362 153.342 9.58496C153.342 10.0423 153.211 10.453 152.95 10.817C152.698 11.1716 152.329 11.4516 151.844 11.657C151.368 11.8623 150.813 11.965 150.178 11.965Z" fill="#CD3744"/>
<path d="M142.371 11.965C141.69 11.965 141.083 11.8483 140.551 11.615C140.019 11.3816 139.599 11.0643 139.291 10.663C138.983 10.2523 138.811 9.79496 138.773 9.29096H141.139C141.167 9.56162 141.293 9.78096 141.517 9.94896C141.741 10.117 142.017 10.201 142.343 10.201C142.642 10.201 142.871 10.145 143.029 10.033C143.197 9.91162 143.281 9.75762 143.281 9.57096C143.281 9.34696 143.165 9.18362 142.931 9.08096C142.698 8.96896 142.32 8.84762 141.797 8.71696C141.237 8.58629 140.771 8.45096 140.397 8.31096C140.024 8.16162 139.702 7.93296 139.431 7.62496C139.161 7.30762 139.025 6.88296 139.025 6.35096C139.025 5.90296 139.147 5.49696 139.389 5.13296C139.641 4.75962 140.005 4.46562 140.481 4.25096C140.967 4.03629 141.541 3.92896 142.203 3.92896C143.183 3.92896 143.953 4.17162 144.513 4.65696C145.083 5.14229 145.409 5.78629 145.493 6.58896H143.281C143.244 6.31829 143.123 6.10362 142.917 5.94496C142.721 5.78629 142.46 5.70696 142.133 5.70696C141.853 5.70696 141.639 5.76296 141.489 5.87496C141.34 5.97762 141.265 6.12229 141.265 6.30896C141.265 6.53296 141.382 6.70096 141.615 6.81296C141.858 6.92496 142.231 7.03696 142.735 7.14896C143.314 7.29829 143.785 7.44762 144.149 7.59696C144.513 7.73696 144.831 7.97029 145.101 8.29696C145.381 8.61429 145.526 9.04362 145.535 9.58496C145.535 10.0423 145.405 10.453 145.143 10.817C144.891 11.1716 144.523 11.4516 144.037 11.657C143.561 11.8623 143.006 11.965 142.371 11.965Z" fill="#CD3744"/>
<path d="M134.989 10.1169H131.321L130.733 11.8529H128.227L131.783 2.0249H134.555L138.111 11.8529H135.577L134.989 10.1169ZM134.373 8.2689L133.155 4.6709L131.951 8.2689H134.373Z" fill="#CD3744"/>
<path d="M121.231 3.95703C122.145 3.95703 122.873 4.2557 123.415 4.85303C123.965 5.44103 124.241 6.25303 124.241 7.28903V11.853H121.861V7.61103C121.861 7.08836 121.725 6.68236 121.455 6.39303C121.184 6.1037 120.82 5.95903 120.363 5.95903C119.905 5.95903 119.541 6.1037 119.271 6.39303C119 6.68236 118.865 7.08836 118.865 7.61103V11.853H116.471V4.04103H118.865V5.07703C119.107 4.7317 119.434 4.46103 119.845 4.26503C120.255 4.0597 120.717 3.95703 121.231 3.95703Z" fill="#CD3744"/>
<path d="M111.112 11.965C110.347 11.965 109.656 11.8016 109.04 11.475C108.433 11.1483 107.953 10.6816 107.598 10.075C107.253 9.46829 107.08 8.75896 107.08 7.94696C107.08 7.14429 107.257 6.43962 107.612 5.83296C107.967 5.21696 108.452 4.74562 109.068 4.41896C109.684 4.09229 110.375 3.92896 111.14 3.92896C111.905 3.92896 112.596 4.09229 113.212 4.41896C113.828 4.74562 114.313 5.21696 114.668 5.83296C115.023 6.43962 115.2 7.14429 115.2 7.94696C115.2 8.74962 115.018 9.45896 114.654 10.075C114.299 10.6816 113.809 11.1483 113.184 11.475C112.568 11.8016 111.877 11.965 111.112 11.965ZM111.112 9.89296C111.569 9.89296 111.957 9.72496 112.274 9.38896C112.601 9.05296 112.764 8.57229 112.764 7.94696C112.764 7.32162 112.605 6.84096 112.288 6.50496C111.98 6.16896 111.597 6.00096 111.14 6.00096C110.673 6.00096 110.286 6.16896 109.978 6.50496C109.67 6.83162 109.516 7.31229 109.516 7.94696C109.516 8.57229 109.665 9.05296 109.964 9.38896C110.272 9.72496 110.655 9.89296 111.112 9.89296Z" fill="#CD3744"/>
<path d="M106.223 9.82296V11.853H105.005C104.137 11.853 103.46 11.643 102.975 11.223C102.49 10.7936 102.247 10.0983 102.247 9.13696V6.02896H101.295V4.04096H102.247V2.13696H104.641V4.04096H106.209V6.02896H104.641V9.16496C104.641 9.3983 104.697 9.5663 104.809 9.66896C104.921 9.77163 105.108 9.82296 105.369 9.82296H106.223Z" fill="#CD3744"/>
<path d="M97.1955 3.95703C98.1102 3.95703 98.8382 4.2557 99.3795 4.85303C99.9302 5.44103 100.206 6.25303 100.206 7.28903V11.853H97.8255V7.61103C97.8255 7.08836 97.6902 6.68236 97.4195 6.39303C97.1489 6.1037 96.7849 5.95903 96.3275 5.95903C95.8702 5.95903 95.5062 6.1037 95.2355 6.39303C94.9649 6.68236 94.8295 7.08836 94.8295 7.61103V11.853H92.4355V4.04103H94.8295V5.07703C95.0722 4.7317 95.3989 4.46103 95.8095 4.26503C96.2202 4.0597 96.6822 3.95703 97.1955 3.95703Z" fill="#CD3744"/>
<path d="M89.51 3.22892C89.09 3.22892 88.7447 3.10758 88.474 2.86492C88.2127 2.61292 88.082 2.30492 88.082 1.94092C88.082 1.56758 88.2127 1.25958 88.474 1.01692C88.7447 0.764916 89.09 0.638916 89.51 0.638916C89.9207 0.638916 90.2567 0.764916 90.518 1.01692C90.7887 1.25958 90.924 1.56758 90.924 1.94092C90.924 2.30492 90.7887 2.61292 90.518 2.86492C90.2567 3.10758 89.9207 3.22892 89.51 3.22892ZM90.7 4.04092V11.8529H88.306V4.04092H90.7Z" fill="#CD3744"/>
<path d="M83.4543 3.95703C84.425 3.95703 85.195 4.25103 85.7643 4.83903C86.343 5.42703 86.6323 6.2437 86.6323 7.28903V11.853H84.2523V7.61103C84.2523 7.10703 84.117 6.7197 83.8463 6.44903C83.585 6.16903 83.221 6.02903 82.7543 6.02903C82.2877 6.02903 81.919 6.16903 81.6483 6.44903C81.387 6.7197 81.2563 7.10703 81.2563 7.61103V11.853H78.8763V7.61103C78.8763 7.10703 78.741 6.7197 78.4703 6.44903C78.209 6.16903 77.845 6.02903 77.3783 6.02903C76.9117 6.02903 76.543 6.16903 76.2723 6.44903C76.011 6.7197 75.8803 7.10703 75.8803 7.61103V11.853H73.4863V4.04103H75.8803V5.02103C76.123 4.69436 76.4403 4.4377 76.8323 4.25103C77.2243 4.05503 77.6677 3.95703 78.1623 3.95703C78.7503 3.95703 79.273 4.08303 79.7303 4.33503C80.197 4.58703 80.561 4.94636 80.8223 5.41303C81.093 4.9837 81.4617 4.6337 81.9283 4.36303C82.395 4.09236 82.9037 3.95703 83.4543 3.95703Z" fill="#CD3744"/>
<path d="M63.5078 7.93292C63.5078 7.13025 63.6571 6.42559 63.9558 5.81892C64.2638 5.21225 64.6791 4.74559 65.2018 4.41892C65.7245 4.09225 66.3078 3.92892 66.9518 3.92892C67.4651 3.92892 67.9318 4.03625 68.3518 4.25092C68.7811 4.46559 69.1172 4.75492 69.3598 5.11892V1.49292H71.7538V11.8529H69.3598V10.7329C69.1358 11.1063 68.8138 11.4049 68.3938 11.6289C67.9831 11.8529 67.5025 11.9649 66.9518 11.9649C66.3078 11.9649 65.7245 11.8016 65.2018 11.4749C64.6791 11.1389 64.2638 10.6676 63.9558 10.0609C63.6571 9.44492 63.5078 8.73559 63.5078 7.93292ZM69.3598 7.94692C69.3598 7.34959 69.1918 6.87825 68.8558 6.53292C68.5291 6.18759 68.1278 6.01492 67.6518 6.01492C67.1758 6.01492 66.7698 6.18759 66.4338 6.53292C66.1071 6.86892 65.9438 7.33559 65.9438 7.93292C65.9438 8.53025 66.1071 9.00625 66.4338 9.36092C66.7698 9.70625 67.1758 9.87892 67.6518 9.87892C68.1278 9.87892 68.5291 9.70625 68.8558 9.36092C69.1918 9.01559 69.3598 8.54425 69.3598 7.94692Z" fill="#CD3744"/>
<path d="M54.0059 7.93296C54.0059 7.13029 54.1552 6.42562 54.4539 5.81896C54.7619 5.21229 55.1772 4.74562 55.6999 4.41896C56.2225 4.09229 56.8059 3.92896 57.4499 3.92896C58.0005 3.92896 58.4812 4.04096 58.8919 4.26496C59.3119 4.48896 59.6339 4.78296 59.8579 5.14696V4.04096H62.2519V11.853H59.8579V10.747C59.6245 11.111 59.2979 11.405 58.8779 11.629C58.4672 11.853 57.9865 11.965 57.4359 11.965C56.8012 11.965 56.2225 11.8016 55.6999 11.475C55.1772 11.139 54.7619 10.6676 54.4539 10.061C54.1552 9.44496 54.0059 8.73562 54.0059 7.93296ZM59.8579 7.94696C59.8579 7.34962 59.6899 6.87829 59.3539 6.53296C59.0272 6.18762 58.6259 6.01496 58.1499 6.01496C57.6739 6.01496 57.2679 6.18762 56.9319 6.53296C56.6052 6.86896 56.4419 7.33562 56.4419 7.93296C56.4419 8.53029 56.6052 9.00629 56.9319 9.36096C57.2679 9.70629 57.6739 9.87896 58.1499 9.87896C58.6259 9.87896 59.0272 9.70629 59.3539 9.36096C59.6899 9.01562 59.8579 8.54429 59.8579 7.94696Z" fill="#CD3744"/>
<path d="M51.2039 6.8129C51.7732 6.93424 52.2306 7.2189 52.5759 7.6669C52.9212 8.10557 53.0939 8.60957 53.0939 9.1789C53.0939 10.0002 52.8046 10.6536 52.2259 11.1389C51.6566 11.6149 50.8586 11.8529 49.8319 11.8529H45.2539V2.0249H49.6779C50.6766 2.0249 51.4559 2.25357 52.0159 2.7109C52.5852 3.16824 52.8699 3.7889 52.8699 4.5729C52.8699 5.15157 52.7159 5.63224 52.4079 6.0149C52.1092 6.39757 51.7079 6.66357 51.2039 6.8129ZM47.6479 6.0009H49.2159C49.6079 6.0009 49.9066 5.9169 50.1119 5.7489C50.3266 5.57157 50.4339 5.3149 50.4339 4.9789C50.4339 4.6429 50.3266 4.38624 50.1119 4.2089C49.9066 4.03157 49.6079 3.9429 49.2159 3.9429H47.6479V6.0009ZM49.4119 9.9209C49.8132 9.9209 50.1212 9.83224 50.3359 9.6549C50.5599 9.46824 50.6719 9.20224 50.6719 8.8569C50.6719 8.51157 50.5552 8.2409 50.3219 8.0449C50.0979 7.8489 49.7852 7.7509 49.3839 7.7509H47.6479V9.9209H49.4119Z" fill="#CD3744"/>
<path d="M40.5522 1.49292V11.8529H38.1582V1.49292H40.5522Z" fill="#CD3744"/>
<path d="M28.1797 7.93296C28.1797 7.13029 28.329 6.42562 28.6277 5.81896C28.9357 5.21229 29.351 4.74562 29.8737 4.41896C30.3964 4.09229 30.9797 3.92896 31.6237 3.92896C32.1744 3.92896 32.655 4.04096 33.0657 4.26496C33.4857 4.48896 33.8077 4.78296 34.0317 5.14696V4.04096H36.4257V11.853H34.0317V10.747C33.7984 11.111 33.4717 11.405 33.0517 11.629C32.641 11.853 32.1604 11.965 31.6097 11.965C30.975 11.965 30.3964 11.8016 29.8737 11.475C29.351 11.139 28.9357 10.6676 28.6277 10.061C28.329 9.44496 28.1797 8.73562 28.1797 7.93296ZM34.0317 7.94696C34.0317 7.34962 33.8637 6.87829 33.5277 6.53296C33.201 6.18762 32.7997 6.01496 32.3237 6.01496C31.8477 6.01496 31.4417 6.18762 31.1057 6.53296C30.779 6.86896 30.6157 7.33562 30.6157 7.93296C30.6157 8.53029 30.779 9.00629 31.1057 9.36096C31.4417 9.70629 31.8477 9.87896 32.3237 9.87896C32.7997 9.87896 33.201 9.70629 33.5277 9.36096C33.8637 9.01562 34.0317 8.54429 34.0317 7.94696Z" fill="#CD3744"/>
<path d="M21.5483 5.14696C21.7816 4.78296 22.1036 4.48896 22.5143 4.26496C22.925 4.04096 23.4056 3.92896 23.9563 3.92896C24.6003 3.92896 25.1836 4.09229 25.7063 4.41896C26.229 4.74562 26.6396 5.21229 26.9383 5.81896C27.2463 6.42562 27.4003 7.13029 27.4003 7.93296C27.4003 8.73562 27.2463 9.44496 26.9383 10.061C26.6396 10.6676 26.229 11.139 25.7063 11.475C25.1836 11.8016 24.6003 11.965 23.9563 11.965C23.415 11.965 22.9343 11.853 22.5143 11.629C22.1036 11.405 21.7816 11.1156 21.5483 10.761V15.577H19.1543V4.04096H21.5483V5.14696ZM24.9643 7.93296C24.9643 7.33562 24.7963 6.86896 24.4603 6.53296C24.1336 6.18762 23.7276 6.01496 23.2423 6.01496C22.7663 6.01496 22.3603 6.18762 22.0243 6.53296C21.6976 6.87829 21.5343 7.34962 21.5343 7.94696C21.5343 8.54429 21.6976 9.01562 22.0243 9.36096C22.3603 9.70629 22.7663 9.87896 23.2423 9.87896C23.7183 9.87896 24.1243 9.70629 24.4603 9.36096C24.7963 9.00629 24.9643 8.53029 24.9643 7.93296Z" fill="#CD3744"/>
<path d="M17.8908 7.82096C17.8908 8.04496 17.8768 8.27829 17.8488 8.52096H12.4308C12.4681 9.00629 12.6221 9.37962 12.8928 9.64096C13.1728 9.89296 13.5134 10.019 13.9148 10.019C14.5121 10.019 14.9274 9.76696 15.1608 9.26296H17.7088C17.5781 9.77629 17.3401 10.2383 16.9948 10.649C16.6588 11.0596 16.2341 11.3816 15.7208 11.615C15.2074 11.8483 14.6334 11.965 13.9988 11.965C13.2334 11.965 12.5521 11.8016 11.9548 11.475C11.3574 11.1483 10.8908 10.6816 10.5548 10.075C10.2188 9.46829 10.0508 8.75896 10.0508 7.94696C10.0508 7.13496 10.2141 6.42562 10.5408 5.81896C10.8768 5.21229 11.3434 4.74562 11.9408 4.41896C12.5381 4.09229 13.2241 3.92896 13.9988 3.92896C14.7548 3.92896 15.4268 4.08762 16.0148 4.40496C16.6028 4.72229 17.0601 5.17496 17.3868 5.76296C17.7228 6.35096 17.8908 7.03696 17.8908 7.82096ZM15.4408 7.19096C15.4408 6.78029 15.3008 6.45362 15.0208 6.21096C14.7408 5.96829 14.3908 5.84696 13.9708 5.84696C13.5694 5.84696 13.2288 5.96362 12.9488 6.19696C12.6781 6.43029 12.5101 6.76162 12.4448 7.19096H15.4408Z" fill="#CD3744"/>
<path d="M8.792 11.8529H6.398L2.394 5.7909V11.8529H0V2.0249H2.394L6.398 8.1149V2.0249H8.792V11.8529Z" fill="#CD3744"/>
<path d="M138.367 26.5549H137.009V35.0809H134.797V32.6869C134.508 33.0323 134.149 33.2983 133.719 33.4849C133.29 33.6716 132.814 33.7649 132.291 33.7649C131.414 33.7649 130.691 33.5409 130.121 33.0929C129.552 32.6449 129.267 32.0149 129.267 31.2029C129.267 30.6896 129.412 30.2556 129.701 29.9009C129.991 29.5463 130.345 29.3083 130.765 29.1869V29.1449C130.355 29.0423 130.028 28.8369 129.785 28.5289C129.552 28.2116 129.435 27.7729 129.435 27.2129V26.5549H128.105V24.7209H138.367V26.5549ZM134.797 26.5549H131.633V27.1149C131.633 27.4883 131.731 27.7729 131.927 27.9689C132.123 28.1649 132.445 28.2629 132.893 28.2629H133.439V30.0269H132.711C132.31 30.0269 132.007 30.1156 131.801 30.2929C131.596 30.4609 131.493 30.6896 131.493 30.9789C131.493 31.3056 131.615 31.5529 131.857 31.7209C132.109 31.8889 132.431 31.9729 132.823 31.9729C133.393 31.9729 133.864 31.8003 134.237 31.4549C134.611 31.1096 134.797 30.6569 134.797 30.0969V26.5549Z" fill="#CD3744"/>
<path d="M127.378 22.4249C127.378 22.7795 127.252 23.0829 127 23.3349C126.748 23.5775 126.445 23.6989 126.09 23.6989C125.736 23.6989 125.437 23.5775 125.194 23.3349C124.942 23.0829 124.816 22.7795 124.816 22.4249C124.816 22.0702 124.942 21.7715 125.194 21.5289C125.437 21.2769 125.736 21.1509 126.09 21.1509C126.445 21.1509 126.748 21.2769 127 21.5289C127.252 21.7715 127.378 22.0702 127.378 22.4249Z" fill="#CD3744"/>
<path d="M128.58 26.5549H127.208V35.0809H125.01V30.8809H119.802V32.2529C119.802 32.5703 119.876 32.8316 120.026 33.0369C120.184 33.2329 120.413 33.3309 120.712 33.3309C120.992 33.3309 121.206 33.2376 121.356 33.0509C121.514 32.8643 121.594 32.6263 121.594 32.3369V32.1549H123.708C123.717 32.2389 123.722 32.3416 123.722 32.4629C123.722 33.3029 123.456 33.9703 122.924 34.4649C122.401 34.9596 121.678 35.2069 120.754 35.2069C120.091 35.2069 119.522 35.0763 119.046 34.8149C118.579 34.5443 118.224 34.1803 117.982 33.7229C117.748 33.2563 117.632 32.7289 117.632 32.1409V29.3129H118.668C119.386 29.3129 119.895 29.1543 120.194 28.8369C120.502 28.5103 120.656 28.0576 120.656 27.4789V26.5549H116.512V24.7209H128.58V26.5549ZM125.01 26.5549H122.854V27.4789C122.854 28.0856 122.742 28.6223 122.518 29.0889H125.01V26.5549Z" fill="#CD3744"/>
<path d="M114.018 26.5549H112.646V35.0809H110.434V29.9709H108.67C108.912 30.4096 109.034 30.8903 109.034 31.4129C109.034 31.9823 108.898 32.4723 108.628 32.8829C108.366 33.2936 108.012 33.6016 107.564 33.8069C107.125 34.0123 106.635 34.1149 106.094 34.1149C105.534 34.1149 105.011 33.9983 104.526 33.7649C104.05 33.5223 103.667 33.1769 103.378 32.7289C103.088 32.2716 102.944 31.7396 102.944 31.1329C102.944 30.4889 103.093 29.9429 103.392 29.4949C103.69 29.0376 104.092 28.6969 104.596 28.4729C105.1 28.2489 105.66 28.1369 106.276 28.1369H110.434V26.5549H102.02V24.7209H114.018V26.5549ZM106.122 32.2529C106.467 32.2529 106.747 32.1503 106.962 31.9449C107.176 31.7303 107.284 31.4549 107.284 31.1189C107.284 30.7829 107.176 30.5076 106.962 30.2929C106.747 30.0783 106.467 29.9709 106.122 29.9709C105.776 29.9709 105.492 30.0783 105.268 30.2929C105.044 30.5076 104.932 30.7829 104.932 31.1189C104.932 31.4549 105.039 31.7303 105.254 31.9449C105.478 32.1503 105.767 32.2529 106.122 32.2529Z" fill="#CD3744"/>
<path d="M98.1654 29.4669C97.5867 29.4669 97.106 29.6209 96.7234 29.9289C96.35 30.2276 96.1634 30.6616 96.1634 31.2309C96.1634 31.7256 96.3267 32.1269 96.6534 32.4349C96.98 32.7429 97.4094 32.8969 97.9414 32.8969C98.492 32.8969 98.9307 32.7336 99.2574 32.4069C99.5934 32.0803 99.7614 31.6509 99.7614 31.1189H101.847C101.847 31.8563 101.689 32.5049 101.371 33.0649C101.063 33.6156 100.615 34.0449 100.027 34.3529C99.4487 34.6516 98.772 34.8009 97.9974 34.8009C97.2134 34.8009 96.5134 34.6516 95.8974 34.3529C95.2907 34.0543 94.8147 33.6343 94.4694 33.0929C94.1334 32.5516 93.9654 31.9263 93.9654 31.2169C93.9654 30.7783 94.0307 30.3629 94.1614 29.9709H92.5094C92.752 30.4096 92.8734 30.8903 92.8734 31.4129C92.8734 31.9823 92.738 32.4723 92.4674 32.8829C92.206 33.2936 91.8514 33.6016 91.4034 33.8069C90.9647 34.0123 90.4747 34.1149 89.9334 34.1149C89.3734 34.1149 88.8507 33.9983 88.3654 33.7649C87.8894 33.5223 87.5067 33.1769 87.2174 32.7289C86.928 32.2716 86.7834 31.7396 86.7834 31.1329C86.7834 30.4889 86.9327 29.9429 87.2314 29.4949C87.53 29.0376 87.9314 28.6969 88.4354 28.4729C88.9394 28.2489 89.4994 28.1369 90.1154 28.1369H95.7154C96.3314 27.8009 97.0687 27.6283 97.9274 27.6189V26.5549H85.8594V24.7209H102.505V26.5549H100.083V29.4669H98.1654ZM89.9614 32.2529C90.3067 32.2529 90.5867 32.1503 90.8014 31.9449C91.016 31.7303 91.1234 31.4549 91.1234 31.1189C91.1234 30.7829 91.016 30.5076 90.8014 30.2929C90.5867 30.0783 90.3067 29.9709 89.9614 29.9709C89.616 29.9709 89.3314 30.0783 89.1074 30.2929C88.8834 30.5076 88.7714 30.7829 88.7714 31.1189C88.7714 31.4549 88.8787 31.7303 89.0934 31.9449C89.3174 32.1503 89.6067 32.2529 89.9614 32.2529Z" fill="#CD3744"/>
<path d="M86.3385 26.5549H84.9665V35.0809H82.7545V30.3769H80.9485V31.0349C80.9485 32.0336 80.6872 32.8176 80.1645 33.3869C79.6512 33.9469 78.9045 34.2269 77.9245 34.2269C77.3179 34.2269 76.7812 34.1103 76.3145 33.8769C75.8479 33.6436 75.4885 33.3123 75.2365 32.8829C74.9845 32.4536 74.8585 31.9543 74.8585 31.3849C74.8585 30.4703 75.1525 29.7749 75.7405 29.2989C76.3379 28.8229 77.0939 28.5849 78.0085 28.5849H78.9045V26.5549H74.0605V24.7209H86.3385V26.5549ZM82.7545 26.5549H80.9485V28.5849H82.7545V26.5549ZM78.9045 30.3769H78.0645C77.7192 30.3769 77.4392 30.4656 77.2245 30.6429C77.0099 30.8203 76.9025 31.0676 76.9025 31.3849C76.9025 31.6929 76.9912 31.9356 77.1685 32.1129C77.3552 32.2809 77.5932 32.3649 77.8825 32.3649C78.2092 32.3649 78.4612 32.2576 78.6385 32.0429C78.8159 31.8189 78.9045 31.5203 78.9045 31.1469V30.3769Z" fill="#CD3744"/>
<path d="M77.7938 20.5769C80.1645 20.5769 81.9145 20.9736 83.0438 21.7669C84.1825 22.5602 84.7518 23.6616 84.7518 25.0709V25.3089H82.5958V25.1269C82.5958 24.1936 82.1992 23.5029 81.4058 23.0549C80.6125 22.5976 79.3945 22.3689 77.7518 22.3689C76.2025 22.3689 75.0638 22.5602 74.3358 22.9429C73.6078 23.3162 73.2158 23.9089 73.1598 24.7209H74.5318V26.5549H73.1598V35.0809H70.9618V26.5549H69.5898V24.7209H70.9618C71.0925 21.9582 73.3698 20.5769 77.7938 20.5769Z" fill="#CD3744"/>
<path d="M65.9302 29.1309C65.6688 29.1309 65.4495 29.1823 65.2722 29.2849C65.1042 29.3876 65.0202 29.5509 65.0202 29.7749C65.0202 29.9989 65.0948 30.1623 65.2442 30.2649C65.4028 30.3676 65.6035 30.4189 65.8462 30.4189H66.4762C67.2882 30.4189 67.9695 30.6149 68.5202 31.0069C69.0802 31.3989 69.3602 32.0196 69.3602 32.8689C69.3602 33.6343 69.0848 34.2409 68.5342 34.6889C67.9835 35.1369 67.2088 35.3609 66.2102 35.3609C65.1648 35.3609 64.3108 35.1229 63.6482 34.6469C62.9948 34.1709 62.6495 33.5083 62.6122 32.6589H64.7962C64.8055 32.9949 64.9362 33.2563 65.1882 33.4429C65.4402 33.6203 65.7575 33.7089 66.1402 33.7089C66.5042 33.7089 66.7842 33.6343 66.9802 33.4849C67.1855 33.3263 67.2882 33.1163 67.2882 32.8549C67.2882 32.5563 67.1762 32.3369 66.9522 32.1969C66.7375 32.0476 66.4435 31.9729 66.0702 31.9729H65.5662C64.8475 31.9729 64.2082 31.8096 63.6482 31.4829C63.0882 31.1469 62.8082 30.5543 62.8082 29.7049C62.8082 29.0049 63.0462 28.4776 63.5222 28.1229C64.0075 27.7683 64.6235 27.5909 65.3702 27.5909H66.3642V26.5549H61.6602V24.7209H70.0462V26.5549H68.4922V29.1309H65.9302Z" fill="#CD3744"/>
<path d="M58.5615 35.0809V26.5549H57.1895V24.7209H62.1315V26.5549H60.7595V35.0809H58.5615Z" fill="#CD3744"/>
<path d="M57.9084 26.5549H56.5504V35.0809H54.3524V32.8689C54.0537 33.2049 53.6757 33.4663 53.2184 33.6529C52.761 33.8396 52.2337 33.9329 51.6364 33.9329C51.067 33.9329 50.5537 33.8489 50.0964 33.6809C49.639 33.5129 49.2517 33.2703 48.9344 32.9529C48.6264 33.3636 48.2157 33.6856 47.7024 33.9189C47.1984 34.1523 46.6057 34.2689 45.9244 34.2689C45.159 34.2689 44.4964 34.1196 43.9364 33.8209C43.3857 33.5223 42.961 33.1116 42.6624 32.5889C42.3637 32.0663 42.2144 31.4783 42.2144 30.8249C42.2144 30.1903 42.359 29.6209 42.6484 29.1169C42.947 28.6036 43.3764 28.2023 43.9364 27.9129C44.4964 27.6236 45.1544 27.4789 45.9104 27.4789C46.6664 27.4789 47.3104 27.6143 47.8424 27.8849C48.3744 28.1556 48.7944 28.5243 49.1024 28.9909C49.4664 28.8603 49.7277 28.6456 49.8864 28.3469C50.045 28.0483 50.1244 27.6609 50.1244 27.1849V26.5549H41.2344V24.7209H57.9084V26.5549ZM54.3524 26.5549H52.3084V27.5909C52.3084 28.3189 52.117 28.9676 51.7344 29.5369C51.3517 30.0969 50.773 30.4329 49.9984 30.5449C50.101 31.0209 50.325 31.3989 50.6704 31.6789C51.025 31.9589 51.5057 32.0989 52.1124 32.0989C52.803 32.0989 53.349 31.8889 53.7504 31.4689C54.1517 31.0489 54.3524 30.5123 54.3524 29.8589V26.5549ZM45.9804 28.9769C45.495 28.9769 45.089 29.1123 44.7624 29.3829L47.7444 31.6649C47.847 31.4036 47.8984 31.1423 47.8984 30.8809C47.8984 30.3583 47.721 29.9103 47.3664 29.5369C47.021 29.1636 46.559 28.9769 45.9804 28.9769ZM44.0344 30.8809C44.0344 31.4409 44.221 31.8936 44.5944 32.2389C44.977 32.5843 45.439 32.7569 45.9804 32.7569C46.447 32.7569 46.8484 32.6263 47.1844 32.3649L44.1884 30.0969C44.0857 30.3489 44.0344 30.6103 44.0344 30.8809Z" fill="#CD3744"/>
<path d="M36.0267 26.5549V28.0389C36.5587 28.2816 36.9787 28.6643 37.2867 29.1869C37.604 29.7096 37.7627 30.3536 37.7627 31.1189C37.7627 31.8096 37.6227 32.4209 37.3427 32.9529C37.0627 33.4849 36.6474 33.9049 36.0967 34.2129C35.5554 34.5116 34.902 34.6609 34.1367 34.6609C33.95 34.6609 33.7914 34.6563 33.6607 34.6469V32.7289L34.0387 32.7569C34.496 32.7569 34.86 32.6123 35.1307 32.3229C35.4014 32.0336 35.5367 31.6416 35.5367 31.1469C35.5367 30.7083 35.4247 30.3536 35.2007 30.0829C34.986 29.8123 34.678 29.6769 34.2767 29.6769C33.8474 29.6769 33.53 29.8309 33.3247 30.1389C33.1194 30.4469 33.0167 30.8436 33.0167 31.3289V31.6649H31.1967V31.3289C31.1967 30.8529 31.094 30.4609 30.8887 30.1529C30.6834 29.8356 30.3754 29.6769 29.9647 29.6769C29.554 29.6769 29.2367 29.8123 29.0127 30.0829C28.7887 30.3443 28.6767 30.6989 28.6767 31.1469C28.6767 31.6416 28.812 32.0336 29.0827 32.3229C29.3534 32.6123 29.7174 32.7569 30.1747 32.7569L30.5527 32.7289V34.6469C30.422 34.6563 30.2634 34.6609 30.0767 34.6609C29.3114 34.6609 28.6534 34.5116 28.1027 34.2129C27.5614 33.9049 27.1507 33.4849 26.8707 32.9529C26.5907 32.4209 26.4507 31.8096 26.4507 31.1189C26.4507 30.3816 26.5954 29.7609 26.8847 29.2569C27.174 28.7529 27.5567 28.3749 28.0327 28.1229C28.518 27.8709 29.0547 27.7449 29.6427 27.7449C30.268 27.7449 30.7767 27.8943 31.1687 28.1929C31.57 28.4823 31.8734 28.8649 32.0787 29.3409H32.1207C32.4847 28.5196 33.068 28.0156 33.8707 27.8289V26.5549H25.4707V24.7209H38.7427V26.5549H36.0267Z" fill="#CD3744"/>
<path d="M22.372 35.0809V26.5549H21V24.7209H25.942V26.5549H24.57V35.0809H22.372Z" fill="#CD3744"/>
<path d="M21.4794 26.5549H20.1074V35.0809H17.9094V32.0289C17.4147 32.5703 16.7241 32.8409 15.8374 32.8409C14.8387 32.8409 14.0687 32.5096 13.5274 31.8469C12.9861 31.1749 12.7154 30.3023 12.7154 29.2289V26.5549H11.5254V24.7209H21.4794V26.5549ZM17.9094 26.5549H14.9134V29.2289C14.9134 29.7703 15.0347 30.1996 15.2774 30.5169C15.5294 30.8343 15.9074 30.9929 16.4114 30.9929C16.8874 30.9929 17.2561 30.8389 17.5174 30.5309C17.7787 30.2229 17.9094 29.8309 17.9094 29.3549V26.5549Z" fill="#CD3744"/>
<path d="M8.54262 24.7908C8.15996 24.1935 7.85196 23.7641 7.61863 23.5028C7.38529 23.2415 7.14729 23.0688 6.90463 22.9848C6.65263 22.8915 6.30729 22.8448 5.86862 22.8448H5.14062V21.0808H5.82662C6.61063 21.0901 7.23129 21.1788 7.68862 21.3468C8.14596 21.5055 8.59396 21.8415 9.03262 22.3548C9.46196 22.8588 9.98463 23.6708 10.6006 24.7908H8.54262Z" fill="#CD3744"/>
<path d="M11.998 26.5549H10.626V35.0809H8.414V29.9709H6.65C6.89267 30.4096 7.014 30.8903 7.014 31.4129C7.014 31.9823 6.87867 32.4723 6.608 32.8829C6.34667 33.2936 5.992 33.6016 5.544 33.8069C5.10533 34.0123 4.61533 34.1149 4.074 34.1149C3.514 34.1149 2.99133 33.9983 2.506 33.7649C2.03 33.5223 1.64733 33.1769 1.358 32.7289C1.06867 32.2716 0.924 31.7396 0.924 31.1329C0.924 30.4889 1.07333 29.9429 1.372 29.4949C1.67067 29.0376 2.072 28.6969 2.576 28.4729C3.08 28.2489 3.64 28.1369 4.256 28.1369H8.414V26.5549H0V24.7209H11.998V26.5549ZM4.102 32.2529C4.44733 32.2529 4.72733 32.1503 4.942 31.9449C5.15667 31.7303 5.264 31.4549 5.264 31.1189C5.264 30.7829 5.15667 30.5076 4.942 30.2929C4.72733 30.0783 4.44733 29.9709 4.102 29.9709C3.75667 29.9709 3.472 30.0783 3.248 30.2929C3.024 30.5076 2.912 30.7829 2.912 31.1189C2.912 31.4549 3.01933 31.7303 3.234 31.9449C3.458 32.1503 3.74733 32.2529 4.102 32.2529Z" fill="#CD3744"/>
</svg>
