<svg width="25" height="24" viewBox="0 0 25 24" fill="none" xmlns="http://www.w3.org/2000/svg">
<path d="M22.4769 12.219C22.2897 11.1082 21.5827 10.0297 20.5045 9.57835C20.1713 8.67875 19.4711 7.89316 18.5614 7.50961C18.2034 6.60888 17.4281 5.82993 16.501 5.4788C16.1839 4.61503 15.3346 3.84202 14.4312 3.50676C14.3869 3.37681 14.2825 3.15802 14.1518 2.98462C13.5923 2.20638 12.7286 1.67369 11.7821 1.52315C10.9434 1.38969 10.1276 1.84322 9.79794 2.62588L8.23756 6.33058C7.64551 7.73622 7.3349 9.22086 7.3124 10.7446L5.58146 13.5601C5.48298 13.567 5.39129 13.6083 5.32089 13.6788L4.33971 14.6601C4.2622 14.7376 4.2195 14.8406 4.2195 14.9502C4.2195 14.9601 4.22024 14.9698 4.22095 14.9796L3.45959 15.741C2.18014 17.0206 2.18014 19.1027 3.45959 20.3824L3.62027 20.5431C4.8823 21.8075 6.97534 21.8304 8.26108 20.5431L9.02259 19.7815C9.11362 19.7859 9.20105 19.7693 9.34184 19.6629L10.323 18.6816C10.3937 18.611 10.4349 18.5191 10.4418 18.4204L13.245 16.6895C14.7726 16.6684 16.261 16.3576 17.67 15.764L17.8701 15.6798C18.0192 15.6169 18.0892 15.4451 18.0264 15.296C17.9636 15.1468 17.7918 15.0768 17.6427 15.1396L17.4426 15.224C16.2323 15.7338 14.9604 16.0247 13.6551 16.0908C13.9455 15.5652 14.3049 15.0208 14.5756 14.645C15.1287 14.4409 15.6678 14.1949 16.1903 13.9072L19.7114 11.9678C20.3229 11.631 20.6785 10.9906 20.6634 10.3177C21.2942 10.7621 21.7782 11.5222 21.8982 12.3111C21.989 12.8827 21.6801 13.4388 21.1468 13.6634L18.9065 14.6073C18.7573 14.6701 18.6874 14.8419 18.7502 14.9911C18.7974 15.1031 18.906 15.1704 19.0203 15.1704C19.0582 15.1704 19.0968 15.163 19.1339 15.1473L21.3743 14.2035C22.1569 13.8738 22.6103 13.0577 22.4769 12.219ZM15.8175 5.39215C16.1301 5.88201 16.0489 6.57868 15.6027 6.98376L14.3484 8.13478C14.2292 8.24417 14.2212 8.42956 14.3306 8.54881C14.4411 8.62863 14.5325 8.70649 14.7446 8.56662L15.9989 7.41561C16.365 7.07964 16.5684 6.62865 16.5941 6.16332C17.2214 6.48846 17.7258 7.03088 17.9998 7.68547C18.2501 8.20932 18.0849 8.89024 17.593 9.23766L14.3541 11.5515C13.274 12.3231 12.083 12.8863 10.8077 13.2292C10.9996 12.5582 11.2551 11.9107 11.582 11.2634C12.1033 10.9209 12.5984 10.536 13.0639 10.1089L13.739 9.48943C13.8582 9.37999 13.8662 9.19464 13.7568 9.0754C13.6473 8.95615 13.462 8.94818 13.3428 9.05758L12.6677 9.67708C11.6888 10.5754 10.5744 11.2801 9.34922 11.7763C9.45502 11.1024 9.62296 10.4461 9.85736 9.78414C10.4234 9.34334 10.9493 8.84996 11.4305 8.3052L14.0678 5.32002C14.3553 4.99464 14.5102 4.59487 14.5293 4.18862C15.0704 4.46039 15.5272 4.88341 15.8175 5.39215ZM11.7176 16.9439L10.8714 16.099L11.7464 15.4064L12.685 16.3465L11.7176 16.9439ZM10.1399 17.9181L9.44779 17.226L10.4088 16.4653L11.2051 17.2604L10.1399 17.9181ZM6.73723 12.7991L7.53492 13.5956L6.7763 14.5542L6.08393 13.8617L6.73723 12.7991ZM10.3935 14.0515L11.3296 14.9889L10.4539 15.6821L9.6078 14.8372L10.3935 14.0515ZM9.19312 14.4232L8.31851 13.5498L9.01451 12.6704L9.97944 13.6368L9.19312 14.4232ZM10.2437 13.072L9.51365 12.3408C9.91834 12.1793 10.3121 11.9971 10.6933 11.793C10.5177 12.2136 10.3674 12.6409 10.2437 13.072ZM8.78292 11.609L8.09231 10.9173C8.4257 10.7436 8.74917 10.5549 9.06193 10.3514C8.94473 10.7676 8.85234 11.1851 8.78292 11.609ZM7.65403 11.3078L8.59759 12.2528L7.90101 13.133L7.05269 12.2859L7.65403 11.3078ZM7.95238 14.0125L8.77874 14.8376L7.91921 15.6972L7.19348 14.9714L7.95238 14.0125ZM9.19339 15.2517L9.99124 16.0483L9.0306 16.8088L8.33355 16.1116L9.19339 15.2517ZM11.6599 14.4904L10.9639 13.7934C11.374 13.6829 11.7758 13.5512 12.1686 13.3978C11.9776 13.7569 11.8087 14.1196 11.6599 14.4904ZM8.77761 6.55805L10.338 2.85335C10.5631 2.33742 11.1072 2.00958 11.6901 2.1019C12.4833 2.22806 13.2072 2.67448 13.6761 3.32672C14.037 3.779 14.03 4.48255 13.6288 4.9319L10.9915 7.91708C10.1119 8.91271 9.07713 9.7301 7.91066 10.3516C7.97613 9.04418 8.26706 7.77021 8.77761 6.55805ZM9.05185 19.1241L8.19513 18.2673C8.08075 18.1529 7.89522 18.1529 7.7808 18.2673C7.66638 18.3818 7.66638 18.5673 7.7808 18.6817L8.53716 19.4381L7.84678 20.1286C6.79579 21.1797 5.08567 21.1797 4.03468 20.1286L3.874 19.9679C2.82301 18.9168 2.82301 17.2065 3.874 16.1554L4.56438 15.4649L6.82325 17.7241C6.93768 17.8385 7.1232 17.8385 7.23759 17.7241C7.35201 17.6096 7.35201 17.4241 7.23759 17.3097L4.87835 14.9502L5.61092 14.2175L9.78442 18.3915L9.05185 19.1241ZM13.0834 15.9161L12.3886 15.2202C12.821 15.15 13.2472 15.0554 13.6665 14.9385C13.4665 15.2469 13.2606 15.5866 13.0834 15.9161ZM19.4287 11.4544L15.9076 13.3937C14.7557 14.0282 13.5195 14.4508 12.2264 14.6526C12.4567 14.088 12.7371 13.5425 13.0757 12.9973C13.6375 12.72 14.1783 12.3972 14.6947 12.0284L17.9337 9.71455C18.4256 9.36311 18.6993 8.81316 18.705 8.24152C19.354 8.64527 19.836 9.29114 20.0347 10.0308C20.1848 10.5898 19.9357 11.1752 19.4287 11.4544Z" fill="white" stroke="white" stroke-width="0.2"/>
</svg>
