<svg width="24" height="24" viewBox="0 0 24 24" fill="none" xmlns="http://www.w3.org/2000/svg">
<path d="M21.9769 12.219C21.7897 11.1082 21.0827 10.0297 20.0045 9.57835C19.6713 8.67875 18.9711 7.89316 18.0614 7.50961C17.7034 6.60888 16.9281 5.82993 16.001 5.4788C15.6839 4.61503 14.8346 3.84202 13.9312 3.50676C13.8869 3.37681 13.7825 3.15802 13.6518 2.98462C13.0923 2.20638 12.2286 1.67369 11.2821 1.52315C10.4434 1.38969 9.62758 1.84322 9.29794 2.62588L7.73756 6.33058C7.14551 7.73622 6.8349 9.22086 6.8124 10.7446L5.08146 13.5601C4.98298 13.567 4.89129 13.6083 4.82089 13.6788L3.83971 14.6601C3.7622 14.7376 3.7195 14.8406 3.7195 14.9502C3.7195 14.9601 3.72024 14.9698 3.72095 14.9796L2.95959 15.741C1.68014 17.0206 1.68014 19.1027 2.95959 20.3824L3.12027 20.5431C4.3823 21.8075 6.47534 21.8304 7.76108 20.5431L8.52259 19.7815C8.61362 19.7859 8.70105 19.7693 8.84184 19.6629L9.82302 18.6816C9.89365 18.611 9.93495 18.5191 9.94182 18.4204L12.745 16.6895C14.2726 16.6684 15.761 16.3576 17.17 15.764L17.3701 15.6798C17.5192 15.6169 17.5892 15.4451 17.5264 15.296C17.4636 15.1468 17.2918 15.0768 17.1427 15.1396L16.9426 15.224C15.7323 15.7338 14.4604 16.0247 13.1551 16.0908C13.4455 15.5652 13.8049 15.0208 14.0756 14.645C14.6287 14.4409 15.1678 14.1949 15.6903 13.9072L19.2114 11.9678C19.8229 11.631 20.1785 10.9906 20.1634 10.3177C20.7942 10.7621 21.2782 11.5222 21.3982 12.3111C21.489 12.8827 21.1801 13.4388 20.6468 13.6634L18.4065 14.6073C18.2573 14.6701 18.1874 14.8419 18.2502 14.9911C18.2974 15.1031 18.406 15.1704 18.5203 15.1704C18.5582 15.1704 18.5968 15.163 18.6339 15.1473L20.8743 14.2035C21.6569 13.8738 22.1103 13.0577 21.9769 12.219ZM15.3175 5.39215C15.6301 5.88201 15.5489 6.57868 15.1027 6.98376L13.8484 8.13478C13.7292 8.24417 13.7212 8.42956 13.8306 8.54881C13.9411 8.62863 14.0325 8.70649 14.2446 8.56662L15.4989 7.41561C15.865 7.07964 16.0684 6.62865 16.0941 6.16332C16.7214 6.48846 17.2258 7.03088 17.4998 7.68547C17.7501 8.20932 17.5849 8.89024 17.093 9.23766L13.8541 11.5515C12.774 12.3231 11.583 12.8863 10.3077 13.2292C10.4996 12.5582 10.7551 11.9107 11.082 11.2634C11.6033 10.9209 12.0984 10.536 12.5639 10.1089L13.239 9.48943C13.3582 9.37999 13.3662 9.19464 13.2568 9.0754C13.1473 8.95615 12.962 8.94818 12.8428 9.05758L12.1677 9.67708C11.1888 10.5754 10.0744 11.2801 8.84922 11.7763C8.95502 11.1024 9.12296 10.4461 9.35736 9.78414C9.92338 9.34334 10.4493 8.84996 10.9305 8.3052L13.5678 5.32002C13.8553 4.99464 14.0102 4.59487 14.0293 4.18862C14.5704 4.46039 15.0272 4.88341 15.3175 5.39215ZM11.2176 16.9439L10.3714 16.099L11.2464 15.4064L12.185 16.3465L11.2176 16.9439ZM9.63988 17.9181L8.94779 17.226L9.90877 16.4653L10.7051 17.2604L9.63988 17.9181ZM6.23723 12.7991L7.03492 13.5956L6.2763 14.5542L5.58393 13.8617L6.23723 12.7991ZM9.8935 14.0515L10.8296 14.9889L9.95389 15.6821L9.1078 14.8372L9.8935 14.0515ZM8.69312 14.4232L7.81851 13.5498L8.51451 12.6704L9.47944 13.6368L8.69312 14.4232ZM9.74372 13.072L9.01365 12.3408C9.41834 12.1793 9.81208 11.9971 10.1933 11.793C10.0177 12.2136 9.8674 12.6409 9.74372 13.072ZM8.28292 11.609L7.59231 10.9173C7.9257 10.7436 8.24917 10.5549 8.56193 10.3514C8.44473 10.7676 8.35234 11.1851 8.28292 11.609ZM7.15403 11.3078L8.09759 12.2528L7.40101 13.133L6.55269 12.2859L7.15403 11.3078ZM7.45238 14.0125L8.27874 14.8376L7.41921 15.6972L6.69348 14.9714L7.45238 14.0125ZM8.69339 15.2517L9.49124 16.0483L8.5306 16.8088L7.83355 16.1116L8.69339 15.2517ZM11.1599 14.4904L10.4639 13.7934C10.874 13.6829 11.2758 13.5512 11.6686 13.3978C11.4776 13.7569 11.3087 14.1196 11.1599 14.4904ZM8.27761 6.55805L9.83799 2.85335C10.0631 2.33742 10.6072 2.00958 11.1901 2.1019C11.9833 2.22806 12.7072 2.67448 13.1761 3.32672C13.537 3.779 13.53 4.48255 13.1288 4.9319L10.4915 7.91708C9.61191 8.91271 8.57713 9.7301 7.41066 10.3516C7.47613 9.04418 7.76706 7.77021 8.27761 6.55805ZM8.55185 19.1241L7.69513 18.2673C7.58075 18.1529 7.39522 18.1529 7.2808 18.2673C7.16638 18.3818 7.16638 18.5673 7.2808 18.6817L8.03716 19.4381L7.34678 20.1286C6.29579 21.1797 4.58567 21.1797 3.53468 20.1286L3.374 19.9679C2.32301 18.9168 2.32301 17.2065 3.374 16.1554L4.06438 15.4649L6.32325 17.7241C6.43768 17.8385 6.6232 17.8385 6.73759 17.7241C6.85201 17.6096 6.85201 17.4241 6.73759 17.3097L4.37835 14.9502L5.11092 14.2175L9.28442 18.3915L8.55185 19.1241ZM12.5834 15.9161L11.8886 15.2202C12.321 15.15 12.7472 15.0554 13.1665 14.9385C12.9665 15.2469 12.7606 15.5866 12.5834 15.9161ZM18.9287 11.4544L15.4076 13.3937C14.2557 14.0282 13.0195 14.4508 11.7264 14.6526C11.9567 14.088 12.2371 13.5425 12.5757 12.9973C13.1375 12.72 13.6783 12.3972 14.1947 12.0284L17.4337 9.71455C17.9256 9.36311 18.1993 8.81316 18.205 8.24152C18.854 8.64527 19.336 9.29114 19.5347 10.0308C19.6848 10.5898 19.4357 11.1752 18.9287 11.4544Z" fill="#005399"/>
</svg>
