<svg width="28" height="28" viewBox="0 0 28 28" fill="none" xmlns="http://www.w3.org/2000/svg">
<rect width="28" height="28" rx="14" fill="#F2F6FA"/>
<path d="M17.334 8.33203H10.6673C8.66732 8.33203 7.33398 9.33203 7.33398 11.6654V16.332C7.33398 18.6654 8.66732 19.6654 10.6673 19.6654H17.334C19.334 19.6654 20.6673 18.6654 20.6673 16.332V11.6654C20.6673 9.33203 19.334 8.33203 17.334 8.33203ZM17.6473 12.392L15.5607 14.0587C15.1207 14.412 14.5607 14.5854 14.0007 14.5854C13.4407 14.5854 12.874 14.412 12.4407 14.0587L10.354 12.392C10.1407 12.2187 10.1073 11.8987 10.274 11.6854C10.4473 11.472 10.7607 11.432 10.974 11.6054L13.0607 13.272C13.5673 13.6787 14.4273 13.6787 14.934 13.272L17.0207 11.6054C17.234 11.432 17.554 11.4654 17.7207 11.6854C17.894 11.8987 17.8607 12.2187 17.6473 12.392Z" fill="#141414"/>
</svg>
