<svg width="28" height="28" viewBox="0 0 28 28" fill="none" xmlns="http://www.w3.org/2000/svg">
<rect width="28" height="28" rx="14" fill="#F2F6FA"/>
<g clip-path="url(#clip0_6643_11103)">
<path d="M19.7467 11.6346C19.0467 8.55464 16.3601 7.16797 14.0001 7.16797C14.0001 7.16797 14.0001 7.16797 13.9934 7.16797C11.6401 7.16797 8.94673 8.54797 8.24673 11.628C7.46673 15.068 9.5734 17.9813 11.4801 19.8146C12.1867 20.4946 13.0934 20.8346 14.0001 20.8346C14.9067 20.8346 15.8134 20.4946 16.5134 19.8146C18.4201 17.9813 20.5267 15.0746 19.7467 11.6346ZM14.0001 14.9746C12.8401 14.9746 11.9001 14.0346 11.9001 12.8746C11.9001 11.7146 12.8401 10.7746 14.0001 10.7746C15.1601 10.7746 16.1001 11.7146 16.1001 12.8746C16.1001 14.0346 15.1601 14.9746 14.0001 14.9746Z" fill="#141414"/>
</g>
<defs>
<clipPath id="clip0_6643_11103">
<rect width="16" height="16" fill="white" transform="translate(6 6)"/>
</clipPath>
</defs>
</svg>
