<svg width="28" height="28" viewBox="0 0 28 28" fill="none" xmlns="http://www.w3.org/2000/svg">
<rect width="28" height="28" rx="14" fill="#F2F6FA"/>
<path d="M8.03822 9.25773L8.03823 9.25773L8.03927 9.25509C8.17069 8.92106 8.38059 8.60841 8.68376 8.32239L8.68384 8.32248L8.69141 8.31502C9.04261 7.96931 9.38857 7.83203 9.72732 7.83203C9.84397 7.83203 9.95608 7.85725 10.051 7.90279L10.0509 7.90284L10.0578 7.90601C10.1568 7.95173 10.2379 8.01604 10.3029 8.10997L10.3029 8.10999L10.3062 8.11468L11.8529 10.2947L11.8528 10.2947L11.8549 10.2975C11.9568 10.439 12.0223 10.5581 12.0645 10.6613L12.0645 10.6614L12.0677 10.669C12.1083 10.7635 12.1207 10.8359 12.1207 10.8787C12.1207 10.9381 12.1041 11.0091 12.0536 11.0921L12.0493 11.099L12.0454 11.106C11.9866 11.2099 11.8911 11.3345 11.7538 11.4718L11.7537 11.4717L11.747 11.4787L11.243 12.0026C11.071 12.1767 10.994 12.3926 10.994 12.6187C10.994 12.7194 11.0074 12.8071 11.0289 12.8933L11.0358 12.9209L11.0458 12.9476C11.0589 12.9824 11.072 13.0134 11.0803 13.033C11.0811 13.0349 11.0819 13.0368 11.0827 13.0385C11.0913 13.059 11.093 13.0637 11.093 13.0637L11.1071 13.1057L11.1284 13.1448C11.272 13.4081 11.5034 13.7245 11.8056 14.0817L11.8056 14.0817L11.8092 14.0859C12.1143 14.4384 12.4415 14.7998 12.7971 15.1622L12.7971 15.1622L12.8004 15.1656C12.8381 15.2033 12.8768 15.2401 12.9106 15.2723L12.9125 15.2741C12.9483 15.3082 12.9788 15.3373 13.0071 15.3656L13.0071 15.3656L13.0116 15.37C13.081 15.4377 13.0812 15.5444 13.0138 15.6118L11.7804 16.8451C11.7182 16.9074 11.6167 16.9143 11.5415 16.8458C11.5028 16.8073 11.4648 16.771 11.431 16.7387L11.4292 16.737C11.3923 16.7018 11.36 16.671 11.3284 16.6394C10.6595 15.9639 10.0565 15.257 9.51903 14.5189C8.99097 13.7846 8.57138 13.058 8.26856 12.3457C7.97567 11.6345 7.83398 10.9736 7.83398 10.3587C7.83398 9.96462 7.90341 9.59475 8.03822 9.25773Z" fill="#141414" stroke="#141414"/>
<path d="M20.6471 18.2194C20.6471 18.406 20.6137 18.5994 20.5471 18.786C20.5271 18.8394 20.5071 18.8927 20.4804 18.946C20.3671 19.186 20.2204 19.4127 20.0271 19.626C19.7004 19.986 19.3404 20.246 18.9337 20.4127C18.9271 20.4127 18.9204 20.4194 18.9137 20.4194C18.5204 20.5794 18.0937 20.666 17.6337 20.666C16.9537 20.666 16.2271 20.506 15.4604 20.1794C14.6937 19.8527 13.9271 19.4127 13.1671 18.8594C12.9071 18.666 12.6471 18.4727 12.4004 18.266L14.5804 16.086C14.7671 16.226 14.9337 16.3327 15.0737 16.406C15.1071 16.4194 15.1471 16.4394 15.1937 16.4594C15.2471 16.4794 15.3004 16.486 15.3604 16.486C15.4737 16.486 15.5604 16.446 15.6337 16.3727L16.1404 15.8727C16.3071 15.706 16.4671 15.5794 16.6204 15.4994C16.7737 15.406 16.9271 15.3594 17.0937 15.3594C17.2204 15.3594 17.3537 15.386 17.5004 15.446C17.6471 15.506 17.8004 15.5927 17.9671 15.706L20.1737 17.2727C20.3471 17.3927 20.4671 17.5327 20.5404 17.6994C20.6071 17.866 20.6471 18.0327 20.6471 18.2194Z" fill="#141414"/>
</svg>
