<svg width="24" height="24" viewBox="0 0 24 24" fill="none" xmlns="http://www.w3.org/2000/svg">
<path d="M7.14019 10.9988L8.40125 9.69267L10.9293 12.2207L11.1 12.3914V12.15V4.1H12.9V12.15V12.3914L13.0707 12.2207L15.5987 9.69267L16.8598 10.9988L12 15.8586L7.14019 10.9988ZM4.1 17.9999L4.1 15.1H5.9V18V18.1H6H18H18.1V18V15.1H19.9V18C19.9 18.5233 19.715 18.9689 19.3422 19.3424C18.9696 19.7157 18.524 19.9006 18.0001 19.9H18H6C5.47671 19.9 5.03142 19.715 4.65871 19.3423C4.286 18.9696 4.10063 18.5239 4.1 17.9999Z" fill="#005399" stroke="white" stroke-width="0.2"/>
</svg>
