<svg width="26" height="18" viewBox="0 0 26 18" fill="none" xmlns="http://www.w3.org/2000/svg">
<g clip-path="url(#clip0_6315_5141)">
<rect x="0.800781" width="25.2" height="18" rx="3" fill="#1A47B8"/>
<path fill-rule="evenodd" clip-rule="evenodd" d="M3.48155 0H0.800781V3L23.3055 18L26.0008 18V15L3.48155 0Z" fill="white"/>
<path d="M1.6949 0L26.0008 16.2425V18H25.1276L0.800781 1.74067V0H1.6949Z" fill="#F93939"/>
<path fill-rule="evenodd" clip-rule="evenodd" d="M23.6008 0H26.0008V3C26.0008 3 10.4125 12.9937 3.20078 18H0.800781V15L23.6008 0Z" fill="white"/>
<path d="M26.0008 0H25.1869L0.800781 16.2565V18H1.6949L26.0008 1.75382V0Z" fill="#F93939"/>
<path fill-rule="evenodd" clip-rule="evenodd" d="M9.96527 0H16.8572V5.55218H26.0008V12.4442H16.8572V18H9.96527V12.4442H0.800781V5.55218H9.96527V0Z" fill="white"/>
<path fill-rule="evenodd" clip-rule="evenodd" d="M11.4113 0H15.3903V6.92308H26.0008V11.0769H15.3903V18H11.4113V11.0769H0.800781V6.92308H11.4113V0Z" fill="#F93939"/>
</g>
<defs>
<clipPath id="clip0_6315_5141">
<rect x="0.800781" width="25.2" height="18" rx="3" fill="white"/>
</clipPath>
</defs>
</svg>
