<svg width="32" height="32" viewBox="0 0 32 32" fill="none" xmlns="http://www.w3.org/2000/svg">
<path d="M31.9895 16.0006C31.9895 24.0816 26.0011 30.7623 18.2217 31.8464C17.4943 31.9473 16.7501 32 15.9947 32C15.1228 32 14.2665 31.9305 13.4326 31.796C5.81688 30.5695 0 23.9638 0 16.0006C0 7.16393 7.16182 0 15.9959 0C24.8299 0 31.9917 7.16393 31.9917 16.0006H31.9895Z" fill="#EBEBEB"/>
<path d="M17.7027 11.056V13.5937H20.9991L20.4772 17.0122H17.7027V24.8882C17.1464 24.9616 16.5773 25 15.9996 25C15.3327 25 14.6779 24.9494 14.0402 24.8514V17.0122H11V13.5937H14.0402V10.4887C14.0402 8.56231 15.6799 7 17.7035 7V7.00163C17.7095 7.00163 17.7147 7 17.7207 7H21V9.95647H18.8572C18.2204 9.95647 17.7035 10.4487 17.7035 11.0551L17.7027 11.056Z" fill="#333333"/>
</svg>
