<svg width="32" height="32" viewBox="0 0 32 32" fill="none" xmlns="http://www.w3.org/2000/svg">
<path d="M16.0239 0H15.9511C7.13722 0 -0.0078125 7.14713 -0.0078125 15.9636V16.0364C-0.0078125 24.8529 7.13722 32 15.9511 32H16.0239C24.8377 32 31.9828 24.8529 31.9828 16.0364V15.9636C31.9828 7.14713 24.8377 0 16.0239 0Z" fill="#EBEBEB"/>
<path d="M20.9383 6.51025H11.0396C8.30484 6.51025 6.08008 8.73567 6.08008 11.4712V20.5298C6.08008 23.2653 8.30484 25.4907 11.0396 25.4907H20.9383C23.673 25.4907 25.8978 23.2653 25.8978 20.5298V11.4712C25.8978 8.73567 23.673 6.51025 20.9383 6.51025ZM7.82963 11.4712C7.82963 9.70095 9.26983 8.26031 11.0396 8.26031H20.9383C22.708 8.26031 24.1483 9.70095 24.1483 11.4712V20.5298C24.1483 22.3 22.708 23.7407 20.9383 23.7407H11.0396C9.26983 23.7407 7.82963 22.3 7.82963 20.5298V11.4712Z" fill="#333333"/>
<path d="M15.9882 20.6148C18.5312 20.6148 20.6013 18.5452 20.6013 16.0003C20.6013 13.4553 18.5323 11.3857 15.9882 11.3857C13.444 11.3857 11.375 13.4553 11.375 16.0003C11.375 18.5452 13.444 20.6148 15.9882 20.6148ZM15.9882 13.1369C17.5673 13.1369 18.8518 14.4217 18.8518 16.0014C18.8518 17.581 17.5673 18.8658 15.9882 18.8658C14.409 18.8658 13.1245 17.581 13.1245 16.0014C13.1245 14.4217 14.409 13.1369 15.9882 13.1369Z" fill="#333333"/>
<path d="M21.0281 12.1312C21.7129 12.1312 22.2711 11.574 22.2711 10.8879C22.2711 10.2017 21.714 9.64453 21.0281 9.64453C20.3422 9.64453 19.7852 10.2017 19.7852 10.8879C19.7852 11.574 20.3422 12.1312 21.0281 12.1312Z" fill="#333333"/>
</svg>
