<svg width="16" height="17" viewBox="0 0 16 17" fill="none" xmlns="http://www.w3.org/2000/svg">
<path d="M11.334 2.83325H4.66732C2.66732 2.83325 1.33398 3.83325 1.33398 6.16659V10.8333C1.33398 13.1666 2.66732 14.1666 4.66732 14.1666H11.334C13.334 14.1666 14.6673 13.1666 14.6673 10.8333V6.16659C14.6673 3.83325 13.334 2.83325 11.334 2.83325ZM11.6473 6.89325L9.56065 8.55992C9.12065 8.91325 8.56065 9.08659 8.00065 9.08659C7.44065 9.08659 6.87398 8.91325 6.44065 8.55992L4.35398 6.89325C4.14065 6.71992 4.10732 6.39992 4.27398 6.18659C4.44732 5.97325 4.76065 5.93325 4.97398 6.10659L7.06065 7.77325C7.56732 8.17992 8.42732 8.17992 8.93398 7.77325L11.0207 6.10659C11.234 5.93325 11.554 5.96659 11.7207 6.18659C11.894 6.39992 11.8607 6.71992 11.6473 6.89325Z" fill="#F9FAFB"/>
</svg>
