<svg width="171" height="171" viewBox="0 0 171 171" fill="none" xmlns="http://www.w3.org/2000/svg">
<path d="M170.793 20.3722C170.38 19.3736 169.404 18.722 168.323 18.722H152.282V2.68111C152.282 1.60036 151.632 0.625206 150.632 0.211151C149.63 -0.201233 148.483 0.0243416 147.718 0.790628L129.004 19.505C128.503 20.0063 128.221 20.6863 128.221 21.3951V40.1095C128.221 41.5859 129.416 42.783 130.894 42.783H149.609C150.319 42.783 150.997 42.5009 151.499 41.9996L170.213 23.2853C170.978 22.521 171.208 21.3721 170.793 20.3722Z" fill="#00ABFF"/>
<path d="M129.008 41.9896C129.491 42.4732 130.159 42.7726 130.898 42.7726H149.613C150.323 42.7726 151.002 42.4905 151.503 41.9893L170.217 23.2749C170.982 22.51 171.212 21.361 170.797 20.3611C170.384 19.3626 169.408 18.7109 168.327 18.7109H152.286L129.008 41.9896Z" fill="#4082FD"/>
<path d="M74.7535 170.991C116.039 170.991 149.507 137.523 149.507 96.2379C149.507 54.9527 116.039 21.4844 74.7535 21.4844C33.4683 21.4844 0 54.9527 0 96.2379C0 137.523 33.4683 170.991 74.7535 170.991Z" fill="#FF4F19"/>
<path d="M74.7514 160.398C110.188 160.398 138.915 131.671 138.915 96.2348C138.915 60.7983 110.188 32.0713 74.7514 32.0713C39.3149 32.0713 10.5879 60.7983 10.5879 96.2348C10.5879 131.671 39.3149 160.398 74.7514 160.398Z" fill="white"/>
<path d="M74.7504 149.622C104.223 149.622 128.116 125.729 128.116 96.2563C128.116 66.7832 104.223 42.8906 74.7504 42.8906C45.2774 42.8906 21.3848 66.7832 21.3848 96.2563C21.3848 125.729 45.2774 149.622 74.7504 149.622Z" fill="#FF4F19"/>
<path d="M74.7522 139.028C98.3766 139.028 117.528 119.877 117.528 96.2522C117.528 72.6279 98.3766 53.4766 74.7522 53.4766C51.1279 53.4766 31.9766 72.6279 31.9766 96.2522C31.9766 119.877 51.1279 139.028 74.7522 139.028Z" fill="white"/>
<path d="M74.7575 128.328C92.4758 128.328 106.839 113.964 106.839 96.2458C106.839 78.5276 92.4758 64.1641 74.7575 64.1641C57.0393 64.1641 42.6758 78.5276 42.6758 96.2458C42.6758 113.964 57.0393 128.328 74.7575 128.328Z" fill="#FF4F19"/>
<path d="M74.7492 117.628C86.5613 117.628 96.137 108.053 96.137 96.2404C96.137 84.4282 86.5613 74.8525 74.7492 74.8525C62.937 74.8525 53.3613 84.4282 53.3613 96.2404C53.3613 108.053 62.937 117.628 74.7492 117.628Z" fill="white"/>
<path d="M74.7486 106.938C80.6547 106.938 85.4425 102.15 85.4425 96.2437C85.4425 90.3376 80.6547 85.5498 74.7486 85.5498C68.8425 85.5498 64.0547 90.3376 64.0547 96.2437C64.0547 102.15 68.8425 106.938 74.7486 106.938Z" fill="#FF4F19"/>
<path d="M74.7476 98.9379C74.0635 98.9379 73.3795 98.6769 72.8575 98.1546C71.8131 97.1103 71.8131 95.4183 72.8575 94.3743L123.654 43.5782C124.698 42.5338 126.39 42.5338 127.434 43.5782C128.478 44.6225 128.478 46.3141 127.434 47.3585L76.6378 98.1546C76.1158 98.6769 75.4317 98.9379 74.7476 98.9379Z" fill="#B9BBC1"/>
<path d="M88.1183 88.2705C86.7501 88.2705 85.3823 87.7485 84.338 86.7039C82.2493 84.6166 82.2493 81.2303 84.338 79.1429L130.341 33.1407C132.429 31.0521 135.813 31.0521 137.901 33.1407C139.99 35.228 139.99 38.6143 137.901 40.7016L91.8989 86.7042C90.8546 87.7485 89.4864 88.2705 88.1183 88.2705Z" fill="#5C546A"/>
</svg>
