<svg width="24" height="24" viewBox="0 0 24 24" fill="none" xmlns="http://www.w3.org/2000/svg">
<path fill-rule="evenodd" clip-rule="evenodd" d="M1.59961 0L22.3996 12.8H11.1996L22.3996 24H1.59961V0Z" fill="#003495"/>
<path fill-rule="evenodd" clip-rule="evenodd" d="M3.19931 3.19922L15.9993 11.1992H6.39931L17.5993 22.3992H3.19924C3.19922 21.5992 3.19931 21.6696 3.19931 20.796V3.19922Z" fill="#DF0A37"/>
<path fill-rule="evenodd" clip-rule="evenodd" d="M9.46283 8C9.55083 8.1248 9.59883 8.2592 9.59883 8.4C9.59883 9.0624 8.52363 9.6 7.19883 9.6C5.87403 9.6 4.79883 9.0624 4.79883 8.4C4.79883 8.2592 4.84683 8.1248 4.93483 8C5.26443 8.2336 6.15403 8.4 7.19883 8.4C8.24363 8.4 9.13483 8.2336 9.46283 8Z" fill="white"/>
<path d="M7.19883 20.8C8.52431 20.8 9.59883 19.7255 9.59883 18.4C9.59883 17.0745 8.52431 16 7.19883 16C5.87334 16 4.79883 17.0745 4.79883 18.4C4.79883 19.7255 5.87334 20.8 7.19883 20.8Z" fill="white"/>
</svg>
