<svg xmlns="http://www.w3.org/2000/svg" width="28" height="28" viewBox="0 0 28 28" fill="none">
  <path d="M9.64494 17.125C9.43027 17.125 9.2856 17.146 9.21094 17.167V18.5413C9.2996 18.5623 9.41044 18.5682 9.56327 18.5682C10.1221 18.5682 10.4663 18.2858 10.4663 17.8087C10.4663 17.3817 10.1699 17.125 9.64494 17.125ZM13.7131 17.139C13.4798 17.139 13.3281 17.16 13.2383 17.181V20.226C13.3281 20.247 13.4728 20.247 13.6034 20.247C14.5566 20.254 15.1773 19.729 15.1773 18.6183C15.1843 17.65 14.6184 17.139 13.7131 17.139Z" fill="#DF2A2A"/>
  <path d="M16.3346 2.33594H7.0013C6.38246 2.33594 5.78897 2.58177 5.35139 3.01935C4.9138 3.45694 4.66797 4.05043 4.66797 4.66927V23.3359C4.66797 23.9548 4.9138 24.5483 5.35139 24.9859C5.78897 25.4234 6.38246 25.6693 7.0013 25.6693H21.0013C21.6201 25.6693 22.2136 25.4234 22.6512 24.9859C23.0888 24.5483 23.3346 23.9548 23.3346 23.3359V9.33594L16.3346 2.33594ZM11.0823 18.8909C10.7218 19.2293 10.1898 19.3809 9.5703 19.3809C9.45018 19.3822 9.33012 19.3752 9.21097 19.3599V21.0236H8.16797V16.4316C8.63867 16.3614 9.11427 16.3294 9.59013 16.3359C10.24 16.3359 10.702 16.4596 11.0135 16.7081C11.3098 16.9438 11.5105 17.3299 11.5105 17.7849C11.5093 18.2423 11.3576 18.6284 11.0823 18.8909ZM15.5238 20.4718C15.0338 20.8789 14.2883 21.0726 13.3771 21.0726C12.8311 21.0726 12.445 21.0376 12.1825 21.0026V16.4328C12.6533 16.364 13.1288 16.3317 13.6046 16.3359C14.4878 16.3359 15.0618 16.4946 15.5098 16.8329C15.994 17.1923 16.2973 17.7651 16.2973 18.5876C16.2973 19.4778 15.9718 20.0926 15.5238 20.4718ZM19.8346 17.2343H18.0473V18.2971H19.718V19.1534H18.0473V21.0248H16.9903V16.3709H19.8346V17.2343ZM16.3346 10.5026H15.168V4.66927L21.0013 10.5026H16.3346Z" fill="#DF2A2A"/>
</svg>