<svg width="16" height="17" viewBox="0 0 16 17" fill="none" xmlns="http://www.w3.org/2000/svg">
<path d="M2.03822 3.75895L2.03823 3.75895L2.03927 3.75631C2.17069 3.42228 2.38059 3.10963 2.68376 2.82362L2.68384 2.8237L2.69141 2.81624C3.04261 2.47054 3.38857 2.33325 3.72732 2.33325C3.84397 2.33325 3.95608 2.35847 4.05095 2.40401L4.05093 2.40406L4.05779 2.40723C4.15684 2.45295 4.23786 2.51726 4.30289 2.61119L4.30286 2.61121L4.30619 2.61591L5.85286 4.79591L5.85285 4.79591L5.85488 4.79874C5.95677 4.94025 6.02229 5.05928 6.06454 5.16257L6.06448 5.16259L6.06774 5.17021C6.10825 5.26473 6.12065 5.33709 6.12065 5.37992C6.12065 5.43927 6.10408 5.51027 6.05355 5.59328L6.04935 5.60018L6.04537 5.60722C5.98663 5.71115 5.89111 5.83569 5.75376 5.97303L5.7537 5.97297L5.74699 5.97994L5.24303 6.5038C5.07104 6.67793 4.99398 6.89378 4.99398 7.11992C4.99398 7.22062 5.00737 7.30835 5.02891 7.39452L5.03582 7.42215L5.04582 7.44882C5.05888 7.48365 5.072 7.51459 5.08031 7.53418C5.08115 7.53615 5.08193 7.538 5.08267 7.53974C5.09133 7.56021 5.09303 7.56489 5.09304 7.56489L5.10705 7.60693L5.12837 7.64601C5.272 7.90933 5.50344 8.22577 5.80562 8.58289L5.8056 8.58291L5.80923 8.58711C6.11432 8.93965 6.44147 9.30098 6.79708 9.66342L6.79706 9.66344L6.80043 9.66681C6.8381 9.70447 6.87683 9.74136 6.91056 9.77348L6.91249 9.77532C6.94831 9.80943 6.97882 9.83853 7.0071 9.86681L7.00707 9.86683L7.0116 9.87125C7.08105 9.93896 7.08119 10.0456 7.01376 10.113L5.78043 11.3464C5.71822 11.4086 5.61667 11.4156 5.54154 11.347C5.50282 11.3085 5.46481 11.2722 5.43095 11.2399L5.42922 11.2382C5.39228 11.203 5.36005 11.1722 5.32844 11.1406C4.65952 10.4651 4.05654 9.75824 3.51903 9.02009C2.99097 8.2858 2.57138 7.55918 2.26856 6.84689C1.97567 6.13575 1.83398 5.47486 1.83398 4.85992C1.83398 4.46584 1.90341 4.09597 2.03822 3.75895Z" fill="#F9FAFB" stroke="#F9FAFB"/>
<path d="M14.6471 12.7201C14.6471 12.9068 14.6137 13.1001 14.5471 13.2868C14.5271 13.3401 14.5071 13.3934 14.4804 13.4468C14.3671 13.6868 14.2204 13.9134 14.0271 14.1268C13.7004 14.4868 13.3404 14.7468 12.9337 14.9134C12.9271 14.9134 12.9204 14.9201 12.9137 14.9201C12.5204 15.0801 12.0937 15.1668 11.6337 15.1668C10.9537 15.1668 10.2271 15.0068 9.46039 14.6801C8.69372 14.3534 7.92706 13.9134 7.16706 13.3601C6.90706 13.1668 6.64706 12.9734 6.40039 12.7668L8.58039 10.5868C8.76706 10.7268 8.93372 10.8334 9.07372 10.9068C9.10706 10.9201 9.14706 10.9401 9.19372 10.9601C9.24706 10.9801 9.30039 10.9868 9.36039 10.9868C9.47372 10.9868 9.56039 10.9468 9.63372 10.8734L10.1404 10.3734C10.3071 10.2068 10.4671 10.0801 10.6204 10.0001C10.7737 9.90677 10.9271 9.86011 11.0937 9.86011C11.2204 9.86011 11.3537 9.88677 11.5004 9.94677C11.6471 10.0068 11.8004 10.0934 11.9671 10.2068L14.1737 11.7734C14.3471 11.8934 14.4671 12.0334 14.5404 12.2001C14.6071 12.3668 14.6471 12.5334 14.6471 12.7201Z" fill="#F9FAFB"/>
</svg>
