<svg width="64" height="57" viewBox="0 0 64 57" fill="none" xmlns="http://www.w3.org/2000/svg">
<path d="M56.9992 57C58.6568 57 60.2465 56.3415 61.4186 55.1694C62.5907 53.9973 63.2492 52.4076 63.2492 50.75V35.4875C63.2492 33.8299 62.5907 32.2402 61.4186 31.0681C60.2465 29.896 58.6568 29.2375 56.9992 29.2375H48.3242C48.3242 27.0417 48.4534 24.8458 48.7117 22.65C49.0992 20.325 49.745 18.2583 50.6492 16.45C51.5534 14.6417 52.7179 13.2188 54.1429 12.1812C55.5596 11.0188 57.3679 10.4375 59.5679 10.4375V0.75C55.9513 0.75 52.7846 1.525 50.0679 3.075C47.3701 4.60547 45.0521 6.72472 43.2867 9.275C41.5093 12.0822 40.2005 15.1599 39.4117 18.3875C38.6141 21.9484 38.2241 25.5885 38.2492 29.2375V50.75C38.2492 52.4076 38.9077 53.9973 40.0798 55.1694C41.2519 56.3415 42.8416 57 44.4992 57H56.9992ZM19.4992 57C21.1568 57 22.7465 56.3415 23.9186 55.1694C25.0907 53.9973 25.7492 52.4076 25.7492 50.75V35.4875C25.7492 33.8299 25.0907 32.2402 23.9186 31.0681C22.7465 29.896 21.1568 29.2375 19.4992 29.2375H10.8242C10.8242 27.0417 10.9534 24.8458 11.2117 22.65C11.6034 20.325 12.2492 18.2583 13.1492 16.45C14.0534 14.6417 15.2179 13.2188 16.6429 12.1812C18.0596 11.0188 19.8679 10.4375 22.0679 10.4375V0.75C18.4513 0.75 15.2846 1.525 12.5679 3.075C9.87007 4.60547 7.55215 6.72472 5.78669 9.275C4.00925 12.0822 2.70048 15.1599 1.91169 18.3875C1.11408 21.9484 0.724076 25.5885 0.749186 29.2375V50.75C0.749186 52.4076 1.40767 53.9973 2.57977 55.1694C3.75187 56.3415 5.34158 57 6.99919 57H19.4992Z" fill="white" fill-opacity="0.16"/>
</svg>
