<svg width="33" height="32" viewBox="0 0 33 32" fill="none" xmlns="http://www.w3.org/2000/svg">
<path d="M32.9719 16.0006C32.9719 24.0816 26.9835 30.7623 19.2041 31.8464C18.4768 31.9473 17.7326 32 16.9771 32C16.1052 32 15.2489 31.9305 14.415 31.796C6.7993 30.5695 0.982422 23.9638 0.982422 16.0006C0.982422 7.16393 8.14424 0 16.9783 0C25.8123 0 32.9741 7.16393 32.9741 16.0006H32.9719Z" fill="#EBEBEB"/>
<path d="M7.46978 7.05908L14.8468 16.9249L7.42383 24.9465H9.09492L15.5944 17.9238L20.8452 24.9465H26.531L18.7393 14.5257L25.6489 7.05908H23.9778L17.9928 13.5268L13.1566 7.05908H7.47089H7.46978ZM9.92654 8.29006H12.538L24.072 23.7155H21.4605L9.92654 8.29006Z" fill="#333333"/>
</svg>
